Coordinates
version=1
nRows=8
nColumns=40
inDegrees=yes

Units are S.I. units (second, meters, Newtons, ...)
Angles are in degrees.

endheader
time	pelvis_tilt	pelvis_list	pelvis_rotation	pelvis_tx	pelvis_ty	pelvis_tz	hip_flexion_r	hip_adduction_r	hip_rotation_r	knee_angle_r	knee_angle_r_beta	ankle_angle_r	subtalar_angle_r	mtp_angle_r	hip_flexion_l	hip_adduction_l	hip_rotation_l	knee_angle_l	knee_angle_l_beta	ankle_angle_l	subtalar_angle_l	mtp_angle_l	lumbar_extension	lumbar_bending	lumbar_rotation	arm_flex_r	arm_add_r	arm_rot_r	elbow_flex_r	pro_sup_r	wrist_flex_r	wrist_dev_r	arm_flex_l	arm_add_l	arm_rot_l	elbow_flex_l	pro_sup_l	wrist_flex_l	wrist_dev_l
     16.49750000	     -5.56960091	     -6.55642186	      2.12988998	      0.80208669	      0.92089690	      0.44036725	      9.44794221	      0.24200461	    -11.35210450	     33.63373225	     33.63373225	     14.23642668	    -11.70246529	     -2.86714465	     28.03648853	     -6.93283795	     -3.31518888	     26.64748043	     26.64748043	      8.05893798	    -11.43422624	      1.12633357	     -8.44944374	      4.08311717	      2.38464860	     23.47639322	    -12.26675773	     -8.49353256	     83.34646634	     44.63398517	      0.00000000	      0.00000000	     -1.48663679	     -8.04549921	      2.00099402	     25.88299282	     44.82771286	      0.00000000	      0.00000000
     16.51057143	     -5.56793239	     -6.49833748	      1.84564382	      0.80213506	      0.92209098	      0.43851648	     11.03574147	     -0.19156048	    -10.85628653	     37.04392827	     37.04392827	     13.06992128	    -13.53129171	     -2.64030561	     27.31695586	     -6.83807056	     -3.51457801	     26.33474943	     26.33474943	      8.48568092	    -11.41183393	      0.99515030	     -8.44604855	      3.97504263	      2.42620500	     21.76780013	    -12.20894091	     -7.90890666	     81.85305269	     44.66485841	      0.00000000	      0.00000000	     -0.28551781	     -8.36407721	      1.88586592	     26.04715278	     44.88256255	      0.00000000	      0.00000000
     16.52364286	     -5.41125483	     -6.40351967	      1.66305131	      0.80222202	      0.92336044	      0.43658732	     12.47440451	     -0.71193119	    -10.60670875	     40.44678705	     40.44678705	     12.01073584	    -15.12052045	     -2.35460833	     26.45629407	     -6.68859627	     -3.77450424	     26.06114947	     26.06114947	      8.84596095	    -11.45395626	      0.86698520	     -8.61141845	      3.86137854	      2.35195359	     20.00750827	    -12.01383095	     -7.34846504	     80.37898848	     44.69320046	      0.00000000	      0.00000000	      0.94178656	     -8.74460657	      1.78018762	     26.37371685	     44.93108120	      0.00000000	      0.00000000
     16.53671429	     -5.28247130	     -6.30675210	      1.49711205	      0.80220368	      0.92448934	      0.43457776	     13.97574458	     -1.25107845	    -10.38607845	     43.81473555	     43.81473555	     11.01944748	    -16.55069502	     -1.85870162	     25.61947802	     -6.49983999	     -3.95358539	     25.74474847	     25.74474847	      9.14622502	    -11.53917506	      0.74686135	     -8.71897898	      3.78917244	      2.32288664	     18.19693073	    -11.92995668	     -6.79404043	     78.65023492	     44.72953733	      0.00000000	      0.00000000	      2.18781957	     -9.11625701	      1.67159778	     26.80212448	     44.97855208	      0.00000000	      0.00000000
     16.54978571	     -5.16801898	     -6.29111014	      1.36536486	      0.80208210	      0.92552527	      0.43253156	     15.64161463	     -1.67278279	    -10.11063106	     47.40729841	     47.40729841	     11.61837249	    -17.16141535	      3.07108858	     24.77136836	     -6.31869778	     -3.87779560	     25.29800017	     25.29800017	      9.03741899	    -12.06517645	      0.09755345	     -8.69947095	      3.82714167	      1.62810523	     17.54615741	    -11.73363340	     -5.06660689	     74.23264207	     44.85848786	      0.00000000	      0.00000000	      3.08676853	     -9.55225038	      1.14778377	     27.20878692	     45.14690372	      0.00000000	      0.00000000
     16.56285714	     -4.95879551	     -6.18967426	      1.24607962	      0.80209158	      0.92647951	      0.43040933	     16.99601201	     -2.29209348	    -10.06388240	     50.47080884	     50.47080884	     10.85361441	    -18.04153313	      3.35373680	     23.89113340	     -6.10625539	     -4.03123956	     25.05190960	     25.05190960	      9.36552056	    -12.11820741	      0.03112647	     -8.86250938	      3.82601865	      1.63427745	     15.50605746	    -11.74593714	     -4.71034463	     72.75078221	     44.89104167	      0.00000000	      0.00000000	      4.32376992	     -9.91324634	      1.00348157	     27.88551075	     45.19580367	      0.00000000	      0.00000000
     16.57592857	     -4.70436395	     -6.10309771	      1.24804267	      0.80196198	      0.92741640	      0.42818570	     18.25931339	     -2.91227739	    -10.05597411	     53.32425762	     53.32425762	     10.27198973	    -18.58096541	      3.79926677	     23.03662837	     -5.86364128	     -4.05159010	     24.87298206	     24.87298206	      9.61261265	    -12.18844316	     -0.01275530	     -9.09835815	      3.87054636	      1.59612615	     13.42105943	    -11.74063389	     -4.35303584	     70.95089382	     44.93287421	      0.00000000	      0.00000000	      5.69124132	    -10.29687924	      0.88201738	     28.58910696	     45.24104405	      0.00000000	      0.00000000
     16.58900000	     -4.60148043	     -6.05284755	      1.10909250	      0.80173478	      0.92819843	      0.42614204	     19.86502184	     -3.30719569	     -9.67746319	     56.32241976	     56.32241976	     11.56066035	    -18.64052640	      9.66050822	     22.22677361	     -5.62218967	     -3.93183622	     24.46977224	     24.46977224	      9.67761961	    -12.72272508	     -0.18274321	     -9.03388277	      3.97781136	      1.25562695	     12.92024997	    -11.60899715	     -3.53026264	     65.05017606	     45.12694460	      0.00000000	      0.00000000	      6.52422676	    -10.70692439	      0.51796597	     29.74042169	     45.35828550	      0.00000000	      0.00000000
